<mxfile host="Electron" modified="2023-10-17T21:11:30.417Z" agent="Mozilla/5.0 (Macintosh; Intel Mac OS X 10_15_7) AppleWebKit/537.36 (KHTML, like Gecko) draw.io/22.0.2 Chrome/114.0.5735.289 Electron/25.8.4 Safari/537.36" etag="tmLYaz5z7UwoXW90JRZx" version="22.0.2" type="device">
  <diagram name="Side-1" id="L13B_8dKzI9h2fTyULZp">
    <mxGraphModel dx="1643" dy="536" grid="1" gridSize="10" guides="1" tooltips="1" connect="1" arrows="1" fold="1" page="1" pageScale="1" pageWidth="827" pageHeight="1169" math="0" shadow="0">
      <root>
        <mxCell id="0" />
        <mxCell id="1" parent="0" />
        <mxCell id="ih5rEid3sKnyZheTFn35-23" value="" style="swimlane;startSize=0;swimlaneFillColor=default;fillColor=default;" parent="1" vertex="1">
          <mxGeometry x="-800" y="79.37" width="2160" height="1000.63" as="geometry" />
        </mxCell>
        <mxCell id="I9UYTtLKanYau_QNqnks-6" value="&lt;font style=&quot;font-size: 9px;&quot;&gt;&lt;b&gt;Besked skal printes i shell:&lt;/b&gt; &lt;br&gt;&lt;i&gt;Velkommen til SSO &lt;br style=&quot;font-size: 9px;&quot;&gt;server program&lt;/i&gt;&lt;/font&gt;" style="shape=parallelogram;perimeter=parallelogramPerimeter;whiteSpace=wrap;html=1;fixedSize=1;fontFamily=Avenir Next;align=center;verticalAlign=middle;fontSize=9;" parent="ih5rEid3sKnyZheTFn35-23" vertex="1">
          <mxGeometry x="664" y="476.26" width="201.24" height="59.37" as="geometry" />
        </mxCell>
        <mxCell id="I9UYTtLKanYau_QNqnks-9" value="&lt;b&gt;Besked skal printes i shell:&lt;br&gt;&lt;/b&gt;&lt;i&gt;SSO Server kan modtage beskeder&lt;/i&gt;" style="shape=parallelogram;perimeter=parallelogramPerimeter;whiteSpace=wrap;html=1;fixedSize=1;fontFamily=Avenir Next;fontSize=9;" parent="ih5rEid3sKnyZheTFn35-23" vertex="1">
          <mxGeometry x="664" y="556.26" width="200" height="60" as="geometry" />
        </mxCell>
        <mxCell id="I9UYTtLKanYau_QNqnks-4" value="&lt;b&gt;Besked skal printes i shell:&lt;/b&gt; &lt;br&gt;&lt;i&gt;Produceret af gruppe 6&lt;/i&gt;" style="shape=parallelogram;perimeter=parallelogramPerimeter;whiteSpace=wrap;html=1;fixedSize=1;fontFamily=Avenir Next;fontSize=9;" parent="ih5rEid3sKnyZheTFn35-23" vertex="1">
          <mxGeometry x="664" y="396.26" width="201.24" height="59.37" as="geometry" />
        </mxCell>
        <mxCell id="ih5rEid3sKnyZheTFn35-34" style="edgeStyle=orthogonalEdgeStyle;rounded=0;orthogonalLoop=1;jettySize=auto;html=1;entryX=0.5;entryY=0;entryDx=0;entryDy=0;" parent="ih5rEid3sKnyZheTFn35-23" source="ih5rEid3sKnyZheTFn35-1" target="I9UYTtLKanYau_QNqnks-4" edge="1">
          <mxGeometry relative="1" as="geometry" />
        </mxCell>
        <mxCell id="ih5rEid3sKnyZheTFn35-1" value="START" style="rounded=1;whiteSpace=wrap;html=1;fontStyle=5;fontSize=9;" parent="ih5rEid3sKnyZheTFn35-23" vertex="1">
          <mxGeometry x="705.24" y="316.26" width="120" height="60" as="geometry" />
        </mxCell>
        <mxCell id="I9UYTtLKanYau_QNqnks-29" value="A" style="ellipse;whiteSpace=wrap;html=1;aspect=fixed;fontFamily=Avenir Next;fontSize=9;fontStyle=1" parent="ih5rEid3sKnyZheTFn35-23" vertex="1">
          <mxGeometry x="735.55" y="635.94" width="59.37" height="59.37" as="geometry" />
        </mxCell>
        <mxCell id="ih5rEid3sKnyZheTFn35-6" value="&amp;nbsp;Introduktion&lt;br style=&quot;border-color: var(--border-color);&quot;&gt;&lt;span style=&quot;&quot;&gt;&amp;nbsp;til ny bruger&lt;/span&gt;" style="strokeWidth=2;html=1;shape=mxgraph.flowchart.annotation_2;align=left;labelPosition=right;pointerEvents=1;fontFamily=Avenir Next;fontStyle=1;" parent="ih5rEid3sKnyZheTFn35-23" vertex="1">
          <mxGeometry x="899" y="397.51" width="140" height="217.8" as="geometry" />
        </mxCell>
        <mxCell id="I9UYTtLKanYau_QNqnks-30" value="A" style="ellipse;whiteSpace=wrap;html=1;aspect=fixed;fontFamily=Avenir Next;fontStyle=1;fontSize=9;" parent="ih5rEid3sKnyZheTFn35-23" vertex="1">
          <mxGeometry x="1411" y="315.63" width="60.63" height="60.63" as="geometry" />
        </mxCell>
        <mxCell id="I9UYTtLKanYau_QNqnks-32" value="LÃ¸kke" style="rhombus;whiteSpace=wrap;html=1;fontFamily=Avenir Next;fontSize=9;fontStyle=1;" parent="ih5rEid3sKnyZheTFn35-23" vertex="1">
          <mxGeometry x="1363.82" y="396.57" width="155" height="58.12" as="geometry" />
        </mxCell>
        <mxCell id="I9UYTtLKanYau_QNqnks-34" value="&lt;div style=&quot;&quot;&gt;&lt;span style=&quot;background-color: initial;&quot;&gt;&lt;b style=&quot;&quot;&gt;&lt;font style=&quot;font-size: 9px;&quot;&gt;KeyboardInterrupt:&lt;/font&gt;&lt;/b&gt;&lt;/span&gt;&lt;br&gt;&lt;/div&gt;&lt;div style=&quot;&quot;&gt;&lt;font size=&quot;1&quot;&gt;&lt;i&gt;ctrl-c&lt;/i&gt;&lt;/font&gt;&lt;/div&gt;" style="rounded=1;whiteSpace=wrap;html=1;fontFamily=Avenir Next;fontSize=10;" parent="ih5rEid3sKnyZheTFn35-23" vertex="1">
          <mxGeometry x="1644" y="396.57" width="120" height="60" as="geometry" />
        </mxCell>
        <mxCell id="I9UYTtLKanYau_QNqnks-59" value="&lt;font style=&quot;font-size: 9px;&quot;&gt;&lt;b style=&quot;font-size: 9px;&quot;&gt;Inputs fra klient samles i en variabel&lt;br&gt;&amp;nbsp;kaldet message og sendes til denne &lt;br&gt;server, samt bliver vist i shell&lt;/b&gt;&lt;/font&gt;" style="shape=parallelogram;perimeter=parallelogramPerimeter;whiteSpace=wrap;html=1;fixedSize=1;fontFamily=Avenir Next;fontSize=9;" parent="ih5rEid3sKnyZheTFn35-23" vertex="1">
          <mxGeometry x="1342.66" y="476.73" width="197.32" height="59.37" as="geometry" />
        </mxCell>
        <mxCell id="ih5rEid3sKnyZheTFn35-2" value="SLUT" style="rounded=1;whiteSpace=wrap;html=1;fontFamily=Avenir Next;fontStyle=5;fontSize=9;" parent="ih5rEid3sKnyZheTFn35-23" vertex="1">
          <mxGeometry x="1644" y="316.26" width="120" height="60" as="geometry" />
        </mxCell>
        <mxCell id="ih5rEid3sKnyZheTFn35-37" style="edgeStyle=orthogonalEdgeStyle;rounded=0;orthogonalLoop=1;jettySize=auto;html=1;entryX=0.5;entryY=0;entryDx=0;entryDy=0;" parent="ih5rEid3sKnyZheTFn35-23" edge="1">
          <mxGeometry relative="1" as="geometry">
            <mxPoint x="765.17" y="455.63" as="sourcePoint" />
            <mxPoint x="765.17" y="475.63" as="targetPoint" />
          </mxGeometry>
        </mxCell>
        <mxCell id="ih5rEid3sKnyZheTFn35-38" style="edgeStyle=orthogonalEdgeStyle;rounded=0;orthogonalLoop=1;jettySize=auto;html=1;entryX=0.5;entryY=0;entryDx=0;entryDy=0;" parent="ih5rEid3sKnyZheTFn35-23" edge="1">
          <mxGeometry relative="1" as="geometry">
            <mxPoint x="765.18" y="535.63" as="sourcePoint" />
            <mxPoint x="765.18" y="555.63" as="targetPoint" />
          </mxGeometry>
        </mxCell>
        <mxCell id="ih5rEid3sKnyZheTFn35-40" style="edgeStyle=orthogonalEdgeStyle;rounded=0;orthogonalLoop=1;jettySize=auto;html=1;entryX=0.5;entryY=0;entryDx=0;entryDy=0;" parent="ih5rEid3sKnyZheTFn35-23" edge="1">
          <mxGeometry relative="1" as="geometry">
            <mxPoint x="765.14" y="615.63" as="sourcePoint" />
            <mxPoint x="765.14" y="635.63" as="targetPoint" />
          </mxGeometry>
        </mxCell>
        <mxCell id="ih5rEid3sKnyZheTFn35-59" style="edgeStyle=orthogonalEdgeStyle;rounded=0;orthogonalLoop=1;jettySize=auto;html=1;entryX=0.5;entryY=0;entryDx=0;entryDy=0;" parent="ih5rEid3sKnyZheTFn35-23" edge="1">
          <mxGeometry relative="1" as="geometry">
            <mxPoint x="1441.27" y="455.62999999999994" as="sourcePoint" />
            <mxPoint x="1441.27" y="475.62999999999994" as="targetPoint" />
          </mxGeometry>
        </mxCell>
        <mxCell id="ih5rEid3sKnyZheTFn35-60" style="edgeStyle=orthogonalEdgeStyle;rounded=0;orthogonalLoop=1;jettySize=auto;html=1;entryX=0.5;entryY=0;entryDx=0;entryDy=0;exitX=0.5;exitY=1;exitDx=0;exitDy=0;" parent="ih5rEid3sKnyZheTFn35-23" source="I9UYTtLKanYau_QNqnks-30" edge="1">
          <mxGeometry relative="1" as="geometry">
            <mxPoint x="1441.22" y="377.56999999999994" as="sourcePoint" />
            <mxPoint x="1441.22" y="397.56999999999994" as="targetPoint" />
          </mxGeometry>
        </mxCell>
        <mxCell id="ih5rEid3sKnyZheTFn35-70" value="" style="endArrow=classic;html=1;rounded=0;entryX=0;entryY=0.5;entryDx=0;entryDy=0;" parent="ih5rEid3sKnyZheTFn35-23" edge="1">
          <mxGeometry width="50" height="50" relative="1" as="geometry">
            <mxPoint x="1518.8200000000002" y="425.78999999999996" as="sourcePoint" />
            <mxPoint x="1644" y="426.1" as="targetPoint" />
          </mxGeometry>
        </mxCell>
        <mxCell id="ih5rEid3sKnyZheTFn35-71" value="" style="endArrow=classic;html=1;rounded=0;entryX=0.5;entryY=1;entryDx=0;entryDy=0;" parent="ih5rEid3sKnyZheTFn35-23" target="ih5rEid3sKnyZheTFn35-2" edge="1">
          <mxGeometry width="50" height="50" relative="1" as="geometry">
            <mxPoint x="1704" y="396.26" as="sourcePoint" />
            <mxPoint x="1754" y="346.26" as="targetPoint" />
          </mxGeometry>
        </mxCell>
        <mxCell id="ih5rEid3sKnyZheTFn35-72" value="" style="endArrow=classic;html=1;rounded=0;entryX=-0.009;entryY=0.504;entryDx=0;entryDy=0;entryPerimeter=0;exitX=0.5;exitY=1;exitDx=0;exitDy=0;" parent="ih5rEid3sKnyZheTFn35-23" source="I9UYTtLKanYau_QNqnks-59" target="I9UYTtLKanYau_QNqnks-32" edge="1">
          <mxGeometry width="50" height="50" relative="1" as="geometry">
            <mxPoint x="1444" y="1175.63" as="sourcePoint" />
            <mxPoint x="1362.27" y="426.62812" as="targetPoint" />
            <Array as="points">
              <mxPoint x="1441" y="565.94" />
              <mxPoint x="1304" y="565.94" />
              <mxPoint x="1304" y="425.94" />
            </Array>
          </mxGeometry>
        </mxCell>
        <mxCell id="ih5rEid3sKnyZheTFn35-16" value="Observant oplysninger" style="strokeWidth=2;html=1;shape=mxgraph.flowchart.annotation_2;align=left;labelPosition=right;pointerEvents=1;fontFamily=Avenir Next;fontStyle=1;" parent="1" vertex="1">
          <mxGeometry x="778.62" y="555.31" width="130" height="60" as="geometry" />
        </mxCell>
        <mxCell id="ih5rEid3sKnyZheTFn35-21" value="SERVER.PY FIL" style="text;html=1;align=center;verticalAlign=middle;whiteSpace=wrap;rounded=0;fontSize=60;fontFamily=Avenir Next;fontStyle=1;" parent="1" vertex="1">
          <mxGeometry x="-700" y="600" width="430" height="30" as="geometry" />
        </mxCell>
        <mxCell id="ih5rEid3sKnyZheTFn35-22" value="Studiegrupp 6" style="text;html=1;align=center;verticalAlign=middle;whiteSpace=wrap;rounded=0;fontSize=33;fontFamily=Avenir Next;fontStyle=1;" parent="1" vertex="1">
          <mxGeometry x="-790" y="540" width="410" height="30" as="geometry" />
        </mxCell>
      </root>
    </mxGraphModel>
  </diagram>
</mxfile>
